<svg width="960" height="260" viewBox="0 0 960 260" xmlns="http://www.w3.org/2000/svg">
  <defs>
    <linearGradient id="skysl" x1="0" y1="0" x2="0" y2="1">
      <stop offset="0%" stop-color="#030014"/>
      <stop offset="100%" stop-color="#1a1140"/>
    </linearGradient>
    <radialGradient id="planetGlow" cx="50%" cy="50%" r="50%">
      <stop offset="60%" stop-color="#E9C089"/>
      <stop offset="100%" stop-color="#E9C089" stop-opacity="0"/>
    </radialGradient>
  </defs>
  <rect x="0" y="0" width="960" height="260" fill="url(#skysl)"/>
  <circle cx="11" cy="6" r="1.5" fill="#fff" opacity="0.4">
      <animate attributeName="opacity" values="0.1;0.7;0.1" dur="3.6s" begin="0s" repeatCount="indefinite"/>
    </circle>
<circle cx="58" cy="43" r="0.8" fill="#fff" opacity="0.4">
      <animate attributeName="opacity" values="0.1;0.7;0.1" dur="3.6s" begin="0.3s" repeatCount="indefinite"/>
    </circle>
<circle cx="105" cy="80" r="0.8" fill="#fff" opacity="0.4">
      <animate attributeName="opacity" values="0.1;0.7;0.1" dur="3.6s" begin="0.6s" repeatCount="indefinite"/>
    </circle>
<circle cx="152" cy="27" r="1.5" fill="#fff" opacity="0.4">
      <animate attributeName="opacity" values="0.1;0.7;0.1" dur="3.6s" begin="0.8999999999999999s" repeatCount="indefinite"/>
    </circle>
<circle cx="199" cy="64" r="0.8" fill="#fff" opacity="0.4">
      <animate attributeName="opacity" values="0.1;0.7;0.1" dur="3.6s" begin="1.2s" repeatCount="indefinite"/>
    </circle>
<circle cx="246" cy="11" r="0.8" fill="#fff" opacity="0.4">
      <animate attributeName="opacity" values="0.1;0.7;0.1" dur="3.6s" begin="1.5s" repeatCount="indefinite"/>
    </circle>
<circle cx="293" cy="48" r="1.5" fill="#fff" opacity="0.4">
      <animate attributeName="opacity" values="0.1;0.7;0.1" dur="3.6s" begin="1.7999999999999998s" repeatCount="indefinite"/>
    </circle>
<circle cx="340" cy="85" r="0.8" fill="#fff" opacity="0.4">
      <animate attributeName="opacity" values="0.1;0.7;0.1" dur="3.6s" begin="2.1s" repeatCount="indefinite"/>
    </circle>
<circle cx="387" cy="32" r="0.8" fill="#fff" opacity="0.4">
      <animate attributeName="opacity" values="0.1;0.7;0.1" dur="3.6s" begin="2.4s" repeatCount="indefinite"/>
    </circle>
<circle cx="434" cy="69" r="1.5" fill="#fff" opacity="0.4">
      <animate attributeName="opacity" values="0.1;0.7;0.1" dur="3.6s" begin="2.6999999999999997s" repeatCount="indefinite"/>
    </circle>
<circle cx="481" cy="16" r="0.8" fill="#fff" opacity="0.4">
      <animate attributeName="opacity" values="0.1;0.7;0.1" dur="3.6s" begin="0s" repeatCount="indefinite"/>
    </circle>
<circle cx="528" cy="53" r="0.8" fill="#fff" opacity="0.4">
      <animate attributeName="opacity" values="0.1;0.7;0.1" dur="3.6s" begin="0.3s" repeatCount="indefinite"/>
    </circle>
<circle cx="575" cy="90" r="1.5" fill="#fff" opacity="0.4">
      <animate attributeName="opacity" values="0.1;0.7;0.1" dur="3.6s" begin="0.6s" repeatCount="indefinite"/>
    </circle>
<circle cx="622" cy="37" r="0.8" fill="#fff" opacity="0.4">
      <animate attributeName="opacity" values="0.1;0.7;0.1" dur="3.6s" begin="0.8999999999999999s" repeatCount="indefinite"/>
    </circle>
<circle cx="669" cy="74" r="0.8" fill="#fff" opacity="0.4">
      <animate attributeName="opacity" values="0.1;0.7;0.1" dur="3.6s" begin="1.2s" repeatCount="indefinite"/>
    </circle>
<circle cx="716" cy="21" r="1.5" fill="#fff" opacity="0.4">
      <animate attributeName="opacity" values="0.1;0.7;0.1" dur="3.6s" begin="1.5s" repeatCount="indefinite"/>
    </circle>
<circle cx="763" cy="58" r="0.8" fill="#fff" opacity="0.4">
      <animate attributeName="opacity" values="0.1;0.7;0.1" dur="3.6s" begin="1.7999999999999998s" repeatCount="indefinite"/>
    </circle>
<circle cx="810" cy="95" r="0.8" fill="#fff" opacity="0.4">
      <animate attributeName="opacity" values="0.1;0.7;0.1" dur="3.6s" begin="2.1s" repeatCount="indefinite"/>
    </circle>
<circle cx="857" cy="42" r="1.5" fill="#fff" opacity="0.4">
      <animate attributeName="opacity" values="0.1;0.7;0.1" dur="3.6s" begin="2.4s" repeatCount="indefinite"/>
    </circle>
<circle cx="904" cy="79" r="0.8" fill="#fff" opacity="0.4">
      <animate attributeName="opacity" values="0.1;0.7;0.1" dur="3.6s" begin="2.6999999999999997s" repeatCount="indefinite"/>
    </circle>
<circle cx="951" cy="26" r="0.8" fill="#fff" opacity="0.4">
      <animate attributeName="opacity" values="0.1;0.7;0.1" dur="3.6s" begin="0s" repeatCount="indefinite"/>
    </circle>
<circle cx="38" cy="63" r="1.5" fill="#fff" opacity="0.4">
      <animate attributeName="opacity" values="0.1;0.7;0.1" dur="3.6s" begin="0.3s" repeatCount="indefinite"/>
    </circle>
<circle cx="85" cy="10" r="0.8" fill="#fff" opacity="0.4">
      <animate attributeName="opacity" values="0.1;0.7;0.1" dur="3.6s" begin="0.6s" repeatCount="indefinite"/>
    </circle>
<circle cx="132" cy="47" r="0.8" fill="#fff" opacity="0.4">
      <animate attributeName="opacity" values="0.1;0.7;0.1" dur="3.6s" begin="0.8999999999999999s" repeatCount="indefinite"/>
    </circle>
<circle cx="179" cy="84" r="1.5" fill="#fff" opacity="0.4">
      <animate attributeName="opacity" values="0.1;0.7;0.1" dur="3.6s" begin="1.2s" repeatCount="indefinite"/>
    </circle>
<circle cx="226" cy="31" r="0.8" fill="#fff" opacity="0.4">
      <animate attributeName="opacity" values="0.1;0.7;0.1" dur="3.6s" begin="1.5s" repeatCount="indefinite"/>
    </circle>
<circle cx="273" cy="68" r="0.8" fill="#fff" opacity="0.4">
      <animate attributeName="opacity" values="0.1;0.7;0.1" dur="3.6s" begin="1.7999999999999998s" repeatCount="indefinite"/>
    </circle>
<circle cx="320" cy="15" r="1.5" fill="#fff" opacity="0.4">
      <animate attributeName="opacity" values="0.1;0.7;0.1" dur="3.6s" begin="2.1s" repeatCount="indefinite"/>
    </circle>
<circle cx="367" cy="52" r="0.8" fill="#fff" opacity="0.4">
      <animate attributeName="opacity" values="0.1;0.7;0.1" dur="3.6s" begin="2.4s" repeatCount="indefinite"/>
    </circle>
<circle cx="414" cy="89" r="0.8" fill="#fff" opacity="0.4">
      <animate attributeName="opacity" values="0.1;0.7;0.1" dur="3.6s" begin="2.6999999999999997s" repeatCount="indefinite"/>
    </circle>
  <ellipse cx="890" cy="40" rx="30" ry="7" fill="none" stroke="#7F5AF0" stroke-width="1.5" opacity="0.5" transform="rotate(-15 890 40)"/>
  <circle cx="890" cy="40" r="16" fill="#E9C089" opacity="0.9"/>
  <circle cx="890" cy="40" r="24" fill="url(#planetGlow)" opacity="0.3"/>
  <text x="24" y="26" font-family="Fira Code, monospace" font-size="14" fill="#FFD166" letter-spacing="1">◈ Orbital Skyline</text>
  <text x="24" y="44" font-family="Fira Code, monospace" font-size="10" fill="#8892b0">each tower is a week — taller and brighter the more you shipped</text>
  <line x1="0" y1="210" x2="960" y2="210" stroke="#7F5AF0" stroke-width="1.2" opacity="0.5"/>
  <rect x="40" y="204" width="12" height="6" fill="rgb(42,31,77)"/><polygon points="52,204 58,198 58,204 52,210" fill="rgb(20,20,25)" opacity="0.85"/><polygon points="40,204 46,198 58,198 52,204" fill="rgb(43,75,110)"/>
<rect x="57.30769230769231" y="204" width="12" height="6" fill="rgb(42,31,77)"/><polygon points="69.3076923076923,204 75.3076923076923,198 75.3076923076923,204 69.3076923076923,210" fill="rgb(20,20,25)" opacity="0.85"/><polygon points="57.30769230769231,204 63.30769230769231,198 75.3076923076923,198 69.3076923076923,204" fill="rgb(43,75,110)"/>
<rect x="74.61538461538461" y="174.81632653061223" width="12" height="35.183673469387756" fill="rgb(43,97,127)"/><polygon points="86.61538461538461,174.81632653061223 92.61538461538461,168.81632653061223 92.61538461538461,204 86.61538461538461,210" fill="rgb(20,20,25)" opacity="0.85"/><polygon points="74.61538461538461,174.81632653061223 80.61538461538461,168.81632653061223 92.61538461538461,168.81632653061223 86.61538461538461,174.81632653061223" fill="rgb(43,140,160)"/>
<rect x="91.92307692307692" y="204" width="12" height="6" fill="rgb(42,31,77)"/><polygon points="103.92307692307692,204 109.92307692307692,198 109.92307692307692,204 103.92307692307692,210" fill="rgb(20,20,25)" opacity="0.85"/><polygon points="91.92307692307692,204 97.92307692307692,198 109.92307692307692,198 103.92307692307692,204" fill="rgb(43,75,110)"/>
<rect x="109.23076923076923" y="204" width="12" height="6" fill="rgb(42,31,77)"/><polygon points="121.23076923076923,204 127.23076923076923,198 127.23076923076923,204 121.23076923076923,210" fill="rgb(20,20,25)" opacity="0.85"/><polygon points="109.23076923076923,204 115.23076923076923,198 127.23076923076923,198 121.23076923076923,204" fill="rgb(43,75,110)"/>
<rect x="126.53846153846153" y="204" width="12" height="6" fill="rgb(42,31,77)"/><polygon points="138.53846153846155,204 144.53846153846155,198 144.53846153846155,204 138.53846153846155,210" fill="rgb(20,20,25)" opacity="0.85"/><polygon points="126.53846153846153,204 132.53846153846155,198 144.53846153846155,198 138.53846153846155,204" fill="rgb(43,75,110)"/>
<rect x="143.84615384615384" y="204" width="12" height="6" fill="rgb(42,31,77)"/><polygon points="155.84615384615384,204 161.84615384615384,198 161.84615384615384,204 155.84615384615384,210" fill="rgb(20,20,25)" opacity="0.85"/><polygon points="143.84615384615384,204 149.84615384615384,198 161.84615384615384,198 155.84615384615384,204" fill="rgb(43,75,110)"/>
<rect x="161.15384615384613" y="204" width="12" height="6" fill="rgb(42,31,77)"/><polygon points="173.15384615384613,204 179.15384615384613,198 179.15384615384613,204 173.15384615384613,210" fill="rgb(20,20,25)" opacity="0.85"/><polygon points="161.15384615384613,204 167.15384615384613,198 179.15384615384613,198 173.15384615384613,204" fill="rgb(43,75,110)"/>
<rect x="178.46153846153845" y="204" width="12" height="6" fill="rgb(42,31,77)"/><polygon points="190.46153846153845,204 196.46153846153845,198 196.46153846153845,204 190.46153846153845,210" fill="rgb(20,20,25)" opacity="0.85"/><polygon points="178.46153846153845,204 184.46153846153845,198 196.46153846153845,198 190.46153846153845,204" fill="rgb(43,75,110)"/>
<rect x="195.76923076923077" y="204" width="12" height="6" fill="rgb(42,31,77)"/><polygon points="207.76923076923077,204 213.76923076923077,198 213.76923076923077,204 207.76923076923077,210" fill="rgb(20,20,25)" opacity="0.85"/><polygon points="195.76923076923077,204 201.76923076923077,198 213.76923076923077,198 207.76923076923077,204" fill="rgb(43,75,110)"/>
<rect x="213.07692307692307" y="204" width="12" height="6" fill="rgb(42,31,77)"/><polygon points="225.07692307692307,204 231.07692307692307,198 231.07692307692307,204 225.07692307692307,210" fill="rgb(20,20,25)" opacity="0.85"/><polygon points="213.07692307692307,204 219.07692307692307,198 231.07692307692307,198 225.07692307692307,204" fill="rgb(43,75,110)"/>
<rect x="230.38461538461536" y="204" width="12" height="6" fill="rgb(42,31,77)"/><polygon points="242.38461538461536,204 248.38461538461536,198 248.38461538461536,204 242.38461538461536,210" fill="rgb(20,20,25)" opacity="0.85"/><polygon points="230.38461538461536,204 236.38461538461536,198 248.38461538461536,198 242.38461538461536,204" fill="rgb(43,75,110)"/>
<rect x="247.69230769230768" y="204" width="12" height="6" fill="rgb(42,31,77)"/><polygon points="259.6923076923077,204 265.6923076923077,198 265.6923076923077,204 259.6923076923077,210" fill="rgb(20,20,25)" opacity="0.85"/><polygon points="247.69230769230768,204 253.69230769230768,198 265.6923076923077,198 259.6923076923077,204" fill="rgb(43,75,110)"/>
<rect x="265" y="204" width="12" height="6" fill="rgb(42,31,77)"/><polygon points="277,204 283,198 283,204 277,210" fill="rgb(20,20,25)" opacity="0.85"/><polygon points="265,204 271,198 283,198 277,204" fill="rgb(43,75,110)"/>
<rect x="282.30769230769226" y="204" width="12" height="6" fill="rgb(42,31,77)"/><polygon points="294.30769230769226,204 300.30769230769226,198 300.30769230769226,204 294.30769230769226,210" fill="rgb(20,20,25)" opacity="0.85"/><polygon points="282.30769230769226,204 288.30769230769226,198 300.30769230769226,198 294.30769230769226,204" fill="rgb(43,75,110)"/>
<rect x="299.6153846153846" y="204" width="12" height="6" fill="rgb(42,31,77)"/><polygon points="311.6153846153846,204 317.6153846153846,198 317.6153846153846,204 311.6153846153846,210" fill="rgb(20,20,25)" opacity="0.85"/><polygon points="299.6153846153846,204 305.6153846153846,198 317.6153846153846,198 311.6153846153846,204" fill="rgb(43,75,110)"/>
<rect x="316.9230769230769" y="204" width="12" height="6" fill="rgb(42,31,77)"/><polygon points="328.9230769230769,204 334.9230769230769,198 334.9230769230769,204 328.9230769230769,210" fill="rgb(20,20,25)" opacity="0.85"/><polygon points="316.9230769230769,204 322.9230769230769,198 334.9230769230769,198 328.9230769230769,204" fill="rgb(43,75,110)"/>
<rect x="334.2307692307692" y="204" width="12" height="6" fill="rgb(42,31,77)"/><polygon points="346.2307692307692,204 352.2307692307692,198 352.2307692307692,204 346.2307692307692,210" fill="rgb(20,20,25)" opacity="0.85"/><polygon points="334.2307692307692,204 340.2307692307692,198 352.2307692307692,198 346.2307692307692,204" fill="rgb(43,75,110)"/>
<rect x="351.53846153846155" y="204" width="12" height="6" fill="rgb(42,31,77)"/><polygon points="363.53846153846155,204 369.53846153846155,198 369.53846153846155,204 363.53846153846155,210" fill="rgb(20,20,25)" opacity="0.85"/><polygon points="351.53846153846155,204 357.53846153846155,198 369.53846153846155,198 363.53846153846155,204" fill="rgb(43,75,110)"/>
<rect x="368.8461538461538" y="204" width="12" height="6" fill="rgb(42,31,77)"/><polygon points="380.8461538461538,204 386.8461538461538,198 386.8461538461538,204 380.8461538461538,210" fill="rgb(20,20,25)" opacity="0.85"/><polygon points="368.8461538461538,204 374.8461538461538,198 386.8461538461538,198 380.8461538461538,204" fill="rgb(43,75,110)"/>
<rect x="386.15384615384613" y="204" width="12" height="6" fill="rgb(42,31,77)"/><polygon points="398.15384615384613,204 404.15384615384613,198 404.15384615384613,204 398.15384615384613,210" fill="rgb(20,20,25)" opacity="0.85"/><polygon points="386.15384615384613,204 392.15384615384613,198 404.15384615384613,198 398.15384615384613,204" fill="rgb(43,75,110)"/>
<rect x="403.46153846153845" y="77.9795918367347" width="12" height="132.0204081632653" fill="rgb(221,81,251)"/><polygon points="415.46153846153845,77.9795918367347 421.46153846153845,71.9795918367347 421.46153846153845,204 415.46153846153845,210" fill="rgb(20,20,25)" opacity="0.85"/><polygon points="403.46153846153845,77.9795918367347 409.46153846153845,71.9795918367347 421.46153846153845,71.9795918367347 415.46153846153845,77.9795918367347" fill="rgb(233,75,255)"/><rect x="406.46153846153845" y="91.9795918367347" width="3" height="4" fill="#FFD166">
        <animate attributeName="opacity" values="0.3;1;0.3" dur="2.4s" begin="2s" repeatCount="indefinite"/>
      </rect>
<rect x="420.7692307692307" y="201.3469387755102" width="12" height="8.653061224489797" fill="rgb(42,37,82)"/><polygon points="432.7692307692307,201.3469387755102 438.7692307692307,195.3469387755102 438.7692307692307,204 432.7692307692307,210" fill="rgb(20,20,25)" opacity="0.85"/><polygon points="420.7692307692307,201.3469387755102 426.7692307692307,195.3469387755102 438.7692307692307,195.3469387755102 432.7692307692307,201.3469387755102" fill="rgb(43,81,115)"/>
<rect x="438.07692307692304" y="200.0204081632653" width="12" height="9.979591836734693" fill="rgb(42,40,84)"/><polygon points="450.07692307692304,200.0204081632653 456.07692307692304,194.0204081632653 456.07692307692304,204 450.07692307692304,210" fill="rgb(20,20,25)" opacity="0.85"/><polygon points="438.07692307692304,200.0204081632653 444.07692307692304,194.0204081632653 456.07692307692304,194.0204081632653 450.07692307692304,200.0204081632653" fill="rgb(43,84,117)"/>
<rect x="455.38461538461536" y="204" width="12" height="6" fill="rgb(42,31,77)"/><polygon points="467.38461538461536,204 473.38461538461536,198 473.38461538461536,204 467.38461538461536,210" fill="rgb(20,20,25)" opacity="0.85"/><polygon points="455.38461538461536,204 461.38461538461536,198 473.38461538461536,198 467.38461538461536,204" fill="rgb(43,75,110)"/>
<rect x="472.6923076923077" y="197.3673469387755" width="12" height="12.63265306122449" fill="rgb(42,46,88)"/><polygon points="484.6923076923077,197.3673469387755 490.6923076923077,191.3673469387755 490.6923076923077,204 484.6923076923077,210" fill="rgb(20,20,25)" opacity="0.85"/><polygon points="472.6923076923077,197.3673469387755 478.6923076923077,191.3673469387755 490.6923076923077,191.3673469387755 484.6923076923077,197.3673469387755" fill="rgb(43,90,122)"/>
<rect x="490" y="204" width="12" height="6" fill="rgb(42,31,77)"/><polygon points="502,204 508,198 508,204 502,210" fill="rgb(20,20,25)" opacity="0.85"/><polygon points="490,204 496,198 508,198 502,204" fill="rgb(43,75,110)"/>
<rect x="507.30769230769226" y="204" width="12" height="6" fill="rgb(42,31,77)"/><polygon points="519.3076923076923,204 525.3076923076923,198 525.3076923076923,204 519.3076923076923,210" fill="rgb(20,20,25)" opacity="0.85"/><polygon points="507.30769230769226,204 513.3076923076923,198 525.3076923076923,198 519.3076923076923,204" fill="rgb(43,75,110)"/>
<rect x="524.6153846153845" y="204" width="12" height="6" fill="rgb(42,31,77)"/><polygon points="536.6153846153845,204 542.6153846153845,198 542.6153846153845,204 536.6153846153845,210" fill="rgb(20,20,25)" opacity="0.85"/><polygon points="524.6153846153845,204 530.6153846153845,198 542.6153846153845,198 536.6153846153845,204" fill="rgb(43,75,110)"/>
<rect x="541.9230769230769" y="204" width="12" height="6" fill="rgb(42,31,77)"/><polygon points="553.9230769230769,204 559.9230769230769,198 559.9230769230769,204 553.9230769230769,210" fill="rgb(20,20,25)" opacity="0.85"/><polygon points="541.9230769230769,204 547.9230769230769,198 559.9230769230769,198 553.9230769230769,204" fill="rgb(43,75,110)"/>
<rect x="559.2307692307692" y="204" width="12" height="6" fill="rgb(42,31,77)"/><polygon points="571.2307692307692,204 577.2307692307692,198 577.2307692307692,204 571.2307692307692,210" fill="rgb(20,20,25)" opacity="0.85"/><polygon points="559.2307692307692,204 565.2307692307692,198 577.2307692307692,198 571.2307692307692,204" fill="rgb(43,75,110)"/>
<rect x="576.5384615384615" y="204" width="12" height="6" fill="rgb(42,31,77)"/><polygon points="588.5384615384615,204 594.5384615384615,198 594.5384615384615,204 588.5384615384615,210" fill="rgb(20,20,25)" opacity="0.85"/><polygon points="576.5384615384615,204 582.5384615384615,198 594.5384615384615,198 588.5384615384615,204" fill="rgb(43,75,110)"/>
<rect x="593.8461538461538" y="204" width="12" height="6" fill="rgb(42,31,77)"/><polygon points="605.8461538461538,204 611.8461538461538,198 611.8461538461538,204 605.8461538461538,210" fill="rgb(20,20,25)" opacity="0.85"/><polygon points="593.8461538461538,204 599.8461538461538,198 611.8461538461538,198 605.8461538461538,204" fill="rgb(43,75,110)"/>
<rect x="611.1538461538461" y="204" width="12" height="6" fill="rgb(42,31,77)"/><polygon points="623.1538461538461,204 629.1538461538461,198 629.1538461538461,204 623.1538461538461,210" fill="rgb(20,20,25)" opacity="0.85"/><polygon points="611.1538461538461,204 617.1538461538461,198 629.1538461538461,198 623.1538461538461,204" fill="rgb(43,75,110)"/>
<rect x="628.4615384615385" y="200.0204081632653" width="12" height="9.979591836734693" fill="rgb(42,40,84)"/><polygon points="640.4615384615385,200.0204081632653 646.4615384615385,194.0204081632653 646.4615384615385,204 640.4615384615385,210" fill="rgb(20,20,25)" opacity="0.85"/><polygon points="628.4615384615385,200.0204081632653 634.4615384615385,194.0204081632653 646.4615384615385,194.0204081632653 640.4615384615385,200.0204081632653" fill="rgb(43,84,117)"/>
<rect x="645.7692307692307" y="204" width="12" height="6" fill="rgb(42,31,77)"/><polygon points="657.7692307692307,204 663.7692307692307,198 663.7692307692307,204 657.7692307692307,210" fill="rgb(20,20,25)" opacity="0.85"/><polygon points="645.7692307692307,204 651.7692307692307,198 663.7692307692307,198 657.7692307692307,204" fill="rgb(43,75,110)"/>
<rect x="663.0769230769231" y="192.0612244897959" width="12" height="17.93877551020408" fill="rgb(42,58,97)"/><polygon points="675.0769230769231,192.0612244897959 681.0769230769231,186.0612244897959 681.0769230769231,204 675.0769230769231,210" fill="rgb(20,20,25)" opacity="0.85"/><polygon points="663.0769230769231,192.0612244897959 669.0769230769231,186.0612244897959 681.0769230769231,186.0612244897959 675.0769230769231,192.0612244897959" fill="rgb(43,102,131)"/>
<rect x="680.3846153846154" y="193.3877551020408" width="12" height="16.612244897959183" fill="rgb(42,55,95)"/><polygon points="692.3846153846154,193.3877551020408 698.3846153846154,187.3877551020408 698.3846153846154,204 692.3846153846154,210" fill="rgb(20,20,25)" opacity="0.85"/><polygon points="680.3846153846154,193.3877551020408 686.3846153846154,187.3877551020408 698.3846153846154,187.3877551020408 692.3846153846154,193.3877551020408" fill="rgb(43,99,128)"/>
<rect x="697.6923076923076" y="192.0612244897959" width="12" height="17.93877551020408" fill="rgb(42,58,97)"/><polygon points="709.6923076923076,192.0612244897959 715.6923076923076,186.0612244897959 715.6923076923076,204 709.6923076923076,210" fill="rgb(20,20,25)" opacity="0.85"/><polygon points="697.6923076923076,192.0612244897959 703.6923076923076,186.0612244897959 715.6923076923076,186.0612244897959 709.6923076923076,192.0612244897959" fill="rgb(43,102,131)"/>
<rect x="715" y="177.46938775510205" width="12" height="32.53061224489796" fill="rgb(43,91,122)"/><polygon points="727,177.46938775510205 733,171.46938775510205 733,204 727,210" fill="rgb(20,20,25)" opacity="0.85"/><polygon points="715,177.46938775510205 721,171.46938775510205 733,171.46938775510205 727,177.46938775510205" fill="rgb(43,134,156)"/>
<rect x="732.3076923076923" y="201.3469387755102" width="12" height="8.653061224489797" fill="rgb(42,37,82)"/><polygon points="744.3076923076923,201.3469387755102 750.3076923076923,195.3469387755102 750.3076923076923,204 744.3076923076923,210" fill="rgb(20,20,25)" opacity="0.85"/><polygon points="732.3076923076923,201.3469387755102 738.3076923076923,195.3469387755102 750.3076923076923,195.3469387755102 744.3076923076923,201.3469387755102" fill="rgb(43,81,115)"/>
<rect x="749.6153846153845" y="204" width="12" height="6" fill="rgb(42,31,77)"/><polygon points="761.6153846153845,204 767.6153846153845,198 767.6153846153845,204 761.6153846153845,210" fill="rgb(20,20,25)" opacity="0.85"/><polygon points="749.6153846153845,204 755.6153846153845,198 767.6153846153845,198 761.6153846153845,204" fill="rgb(43,75,110)"/>
<rect x="766.9230769230769" y="204" width="12" height="6" fill="rgb(42,31,77)"/><polygon points="778.9230769230769,204 784.9230769230769,198 784.9230769230769,204 778.9230769230769,210" fill="rgb(20,20,25)" opacity="0.85"/><polygon points="766.9230769230769,204 772.9230769230769,198 784.9230769230769,198 778.9230769230769,204" fill="rgb(43,75,110)"/>
<rect x="784.2307692307692" y="200.0204081632653" width="12" height="9.979591836734693" fill="rgb(42,40,84)"/><polygon points="796.2307692307692,200.0204081632653 802.2307692307692,194.0204081632653 802.2307692307692,204 796.2307692307692,210" fill="rgb(20,20,25)" opacity="0.85"/><polygon points="784.2307692307692,200.0204081632653 790.2307692307692,194.0204081632653 802.2307692307692,194.0204081632653 796.2307692307692,200.0204081632653" fill="rgb(43,84,117)"/>
<rect x="801.5384615384614" y="172.16326530612247" width="12" height="37.836734693877546" fill="rgb(43,103,131)"/><polygon points="813.5384615384614,172.16326530612247 819.5384615384614,166.16326530612247 819.5384615384614,204 813.5384615384614,210" fill="rgb(20,20,25)" opacity="0.85"/><polygon points="801.5384615384614,172.16326530612247 807.5384615384614,166.16326530612247 819.5384615384614,166.16326530612247 813.5384615384614,172.16326530612247" fill="rgb(44,146,165)"/>
<rect x="818.8461538461538" y="186.75510204081633" width="12" height="23.244897959183675" fill="rgb(43,70,106)"/><polygon points="830.8461538461538,186.75510204081633 836.8461538461538,180.75510204081633 836.8461538461538,204 830.8461538461538,210" fill="rgb(20,20,25)" opacity="0.85"/><polygon points="818.8461538461538,186.75510204081633 824.8461538461538,180.75510204081633 836.8461538461538,180.75510204081633 830.8461538461538,186.75510204081633" fill="rgb(43,114,140)"/>
<rect x="836.1538461538461" y="168.18367346938777" width="12" height="41.816326530612244" fill="rgb(43,111,138)"/><polygon points="848.1538461538461,168.18367346938777 854.1538461538461,162.18367346938777 854.1538461538461,204 848.1538461538461,210" fill="rgb(20,20,25)" opacity="0.85"/><polygon points="836.1538461538461,168.18367346938777 842.1538461538461,162.18367346938777 854.1538461538461,162.18367346938777 848.1538461538461,168.18367346938777" fill="rgb(44,155,171)"/>
<rect x="853.4615384615385" y="74" width="12" height="136" fill="rgb(233,75,255)"/><polygon points="865.4615384615385,74 871.4615384615385,68 871.4615384615385,204 865.4615384615385,210" fill="rgb(20,20,25)" opacity="0.85"/><polygon points="853.4615384615385,74 859.4615384615385,68 871.4615384615385,68 865.4615384615385,74" fill="rgb(233,75,255)"/><rect x="856.4615384615385" y="88" width="3" height="4" fill="#FFD166">
        <animate attributeName="opacity" values="0.3;1;0.3" dur="2.4s" begin="2.8000000000000003s" repeatCount="indefinite"/>
      </rect>
<rect x="870.7692307692307" y="103.18367346938776" width="12" height="106.81632653061224" fill="rgb(148,121,225)"/><polygon points="882.7692307692307,103.18367346938776 888.7692307692307,97.18367346938776 888.7692307692307,204 882.7692307692307,210" fill="rgb(20,20,25)" opacity="0.85"/><polygon points="870.7692307692307,103.18367346938776 876.7692307692307,97.18367346938776 888.7692307692307,97.18367346938776 882.7692307692307,103.18367346938776" fill="rgb(205,90,245)"/><rect x="873.7692307692307" y="117.18367346938776" width="3" height="4" fill="#FFD166">
        <animate attributeName="opacity" values="0.3;1;0.3" dur="2.4s" begin="0s" repeatCount="indefinite"/>
      </rect>
<rect x="888.076923076923" y="101.85714285714286" width="12" height="108.14285714285714" fill="rgb(152,119,226)"/><polygon points="900.076923076923,101.85714285714286 906.076923076923,95.85714285714286 906.076923076923,204 900.076923076923,210" fill="rgb(20,20,25)" opacity="0.85"/><polygon points="888.076923076923,101.85714285714286 894.076923076923,95.85714285714286 906.076923076923,95.85714285714286 900.076923076923,101.85714285714286" fill="rgb(209,88,246)"/><rect x="891.076923076923" y="115.85714285714286" width="3" height="4" fill="#FFD166">
        <animate attributeName="opacity" values="0.3;1;0.3" dur="2.4s" begin="0.4s" repeatCount="indefinite"/>
      </rect>
<rect x="905.3846153846154" y="85.93877551020408" width="12" height="124.06122448979592" fill="rgb(198,94,243)"/><polygon points="917.3846153846154,85.93877551020408 923.3846153846154,79.93877551020408 923.3846153846154,204 917.3846153846154,210" fill="rgb(20,20,25)" opacity="0.85"/><polygon points="905.3846153846154,85.93877551020408 911.3846153846154,79.93877551020408 923.3846153846154,79.93877551020408 917.3846153846154,85.93877551020408" fill="rgb(233,75,255)"/><rect x="908.3846153846154" y="99.93877551020408" width="3" height="4" fill="#FFD166">
        <animate attributeName="opacity" values="0.3;1;0.3" dur="2.4s" begin="0.8s" repeatCount="indefinite"/>
      </rect>
<rect x="922.6923076923076" y="202.6734693877551" width="12" height="7.326530612244898" fill="rgb(42,34,79)"/><polygon points="934.6923076923076,202.6734693877551 940.6923076923076,196.6734693877551 940.6923076923076,204 934.6923076923076,210" fill="rgb(20,20,25)" opacity="0.85"/><polygon points="922.6923076923076,202.6734693877551 928.6923076923076,196.6734693877551 940.6923076923076,196.6734693877551 934.6923076923076,202.6734693877551" fill="rgb(43,78,113)"/>
</svg>